<svg aria-hidden="true" style="position: absolute; width: 0; height: 0; overflow: hidden;" version="1.1" xmlns="http://www.w3.org/2000/svg" xmlns:xlink="http://www.w3.org/1999/xlink">
<defs>
<symbol id="icon-rocket" viewBox="0 0 35 32">
<path d="M8.055 13.945l3.705 1.47c0.419-0.784 0.868-1.557 1.346-2.32s0.985-1.492 1.521-2.189l-2.761-0.523-3.81 3.561zM13.438 16.592l4.649 4.345c1.328-0.566 2.575-1.209 3.74-1.928s2.109-1.416 2.831-2.091c1.888-1.764 3.274-3.572 4.16-5.423s1.363-3.942 1.433-6.273c-2.494 0.065-4.731 0.512-6.711 1.34s-3.915 2.124-5.803 3.888c-0.722 0.675-1.468 1.557-2.237 2.646s-1.456 2.254-2.062 3.496zM21.443 13.455c-0.466-0.436-0.699-0.975-0.699-1.617s0.233-1.182 0.699-1.617c0.466-0.436 1.043-0.653 1.73-0.653s1.264 0.218 1.73 0.653c0.466 0.436 0.699 0.975 0.699 1.617s-0.233 1.182-0.699 1.617-1.043 0.653-1.73 0.653c-0.687 0-1.264-0.218-1.73-0.653zM20.918 25.968l3.81-3.561-0.559-2.581c-0.746 0.501-1.526 0.975-2.342 1.421s-1.643 0.866-2.482 1.258l1.573 3.463zM32.314 3.295c0.21 2.962-0.186 5.663-1.189 8.102s-2.657 4.737-4.963 6.894l-0.070 0.065-0.070 0.065 0.769 3.594c0.070 0.327 0.052 0.642-0.052 0.948s-0.285 0.577-0.542 0.817l-5.977 5.619-2.971-6.469-5.942-5.554-6.921-2.777 6.012-5.587c0.256-0.24 0.548-0.408 0.874-0.506s0.664-0.114 1.014-0.049l3.845 0.719c0.023-0.022 0.047-0.038 0.070-0.049s0.047-0.027 0.070-0.049c2.307-2.156 4.765-3.708 7.375-4.656s5.5-1.323 8.669-1.127zM6.727 21.329c0.816-0.762 1.812-1.149 2.989-1.16s2.173 0.365 2.989 1.127c0.816 0.762 1.218 1.693 1.206 2.793s-0.425 2.031-1.241 2.793c-0.606 0.566-1.544 1.035-2.814 1.405s-3.175 0.719-5.715 1.045c0.35-2.374 0.717-4.16 1.101-5.358s0.88-2.080 1.486-2.646zM8.195 22.734c-0.326 0.327-0.618 0.838-0.874 1.535s-0.478 1.59-0.664 2.679c1.165-0.174 2.121-0.381 2.866-0.621s1.293-0.512 1.643-0.817c0.443-0.37 0.67-0.833 0.682-1.389s-0.192-1.040-0.612-1.454c-0.443-0.392-0.961-0.583-1.555-0.572s-1.089 0.223-1.486 0.637z"></path>
</symbol>
<symbol id="icon-star" viewBox="0 0 30 32">
<path d="M13.707 2.191c0.519-1.254 2.289-1.254 2.808 0l3.066 7.403c0.219 0.529 0.714 0.89 1.283 0.936l7.957 0.641c1.348 0.109 1.895 1.798 0.868 2.682l-6.063 5.216c-0.433 0.373-0.622 0.957-0.49 1.514l1.852 7.799c0.314 1.321-1.117 2.366-2.272 1.658l-6.813-4.179c-0.487-0.299-1.099-0.299-1.585 0l-6.813 4.179c-1.154 0.708-2.586-0.336-2.272-1.658l1.852-7.799c0.132-0.557-0.057-1.142-0.49-1.514l-6.063-5.216c-1.027-0.884-0.481-2.574 0.868-2.682l7.958-0.641c0.568-0.046 1.064-0.407 1.283-0.936l3.066-7.403z"></path>
</symbol>
<symbol id="icon-touch" viewBox="0 0 34 32">
<path d="M16.337 1.89c2.121 0 3.932 0.692 5.436 2.075s2.255 3.066 2.255 5.048c0 1.133-0.262 2.2-0.786 3.202s-1.264 1.851-2.22 2.548h-1.188v-1.634c0.676-0.501 1.194-1.111 1.555-1.829s0.542-1.481 0.542-2.287c0-1.438-0.548-2.657-1.643-3.659s-2.412-1.503-3.95-1.503c-1.538 0-2.855 0.501-3.95 1.503s-1.643 2.222-1.643 3.659c0 0.806 0.181 1.568 0.542 2.287s0.88 1.329 1.556 1.829v2.352c-1.305-0.632-2.33-1.525-3.076-2.679s-1.119-2.418-1.119-3.79c0-1.982 0.752-3.665 2.255-5.048s3.315-2.075 5.435-2.075zM15.008 29.333c-0.396 0-0.769-0.071-1.118-0.212s-0.652-0.332-0.909-0.572l-7.201-6.73 1.957-1.895c0.326-0.305 0.693-0.539 1.101-0.702s0.833-0.191 1.276-0.082l2.726 0.588v-10.651c0-0.915 0.338-1.688 1.014-2.32s1.503-0.947 2.482-0.947c0.979 0 1.806 0.316 2.482 0.947s1.014 1.405 1.014 2.32v5.619h0.909c0.116 0 0.221 0.022 0.315 0.065s0.198 0.087 0.315 0.131l5.173 2.352c0.559 0.24 0.973 0.626 1.241 1.16s0.344 1.084 0.227 1.65l-1.258 7.122c-0.116 0.632-0.443 1.149-0.979 1.552s-1.142 0.604-1.818 0.604h-8.948zM14.729 27.373h9.822l1.503-8.135-6.397-2.973h-1.922v-7.188c0-0.392-0.128-0.708-0.384-0.947s-0.594-0.359-1.014-0.359c-0.419 0-0.757 0.12-1.014 0.359s-0.384 0.555-0.384 0.947v13.036l-5.383-1.078-0.804 0.752 5.977 5.587zM24.551 27.373v0z"></path>
</symbol>
<symbol id="icon-close" viewBox="0 0 32 32">
<path d="M19.141 16.123l10.676-10.668c0.36-0.42 0.548-0.96 0.527-1.513s-0.251-1.077-0.642-1.467c-0.391-0.391-0.915-0.62-1.469-0.641s-1.093 0.167-1.514 0.526l-10.676 10.558-10.742-10.734c-0.42-0.36-0.961-0.548-1.514-0.526s-1.077 0.25-1.469 0.641c-0.391 0.391-0.62 0.915-0.642 1.467s0.167 1.093 0.527 1.513l10.72 10.844-10.501 10.361c-0.23 0.197-0.417 0.439-0.549 0.711s-0.206 0.569-0.218 0.871 0.039 0.604 0.15 0.885c0.11 0.282 0.278 0.538 0.492 0.751s0.47 0.381 0.752 0.492c0.282 0.11 0.584 0.161 0.886 0.15s0.599-0.086 0.872-0.217c0.273-0.132 0.515-0.318 0.712-0.548l10.479-10.471 10.413 10.405c0.42 0.359 0.961 0.547 1.514 0.526s1.077-0.25 1.469-0.641c0.391-0.391 0.621-0.915 0.642-1.467s-0.167-1.093-0.527-1.512l-10.369-10.295z"></path>
</symbol>
<symbol id="icon-hamburg" viewBox="0 0 43 32">
<path d="M0.592 3.556c0-0.55 0.219-1.078 0.607-1.467s0.917-0.607 1.467-0.607h37.333c0.55 0 1.078 0.219 1.466 0.607s0.607 0.917 0.607 1.467c0 0.55-0.218 1.078-0.607 1.467s-0.916 0.607-1.466 0.607h-37.333c-0.55 0-1.078-0.219-1.467-0.607s-0.607-0.917-0.607-1.467zM0.592 16.066c0-0.55 0.219-1.078 0.607-1.467s0.917-0.607 1.467-0.607h37.333c0.55 0 1.078 0.219 1.466 0.607s0.607 0.916 0.607 1.467c0 0.55-0.218 1.078-0.607 1.467s-0.916 0.607-1.466 0.607h-37.333c-0.55 0-1.078-0.218-1.467-0.607s-0.607-0.916-0.607-1.467zM2.666 26.503c-0.55 0-1.078 0.219-1.467 0.607s-0.607 0.917-0.607 1.467 0.219 1.078 0.607 1.467c0.389 0.389 0.917 0.607 1.467 0.607h37.333c0.55 0 1.078-0.218 1.467-0.607s0.607-0.917 0.607-1.467c0-0.55-0.218-1.078-0.607-1.467s-0.916-0.607-1.466-0.607h-37.333z"></path>
</symbol>
<symbol id="icon-more" viewBox="0 0 34 32">
<path d="M21.931 15.709c0.353 0.353 0.353 0.924 0 1.277l-9.206 9.206c-0.353 0.353-0.924 0.353-1.277 0l-0.426-0.426c-0.353-0.353-0.353-0.924 0-1.277l8.142-8.142-8.142-8.142c-0.353-0.353-0.353-0.924 0-1.277l0.426-0.426c0.353-0.353 0.924-0.353 1.277 0l9.206 9.206z"></path>
</symbol>
</defs>
</svg>
